<svg xmlns="http://www.w3.org/2000/svg" viewBox="0 0 48 48" width="48" height="48">
  <defs>
    <linearGradient id="grad" x1="0%" y1="0%" x2="100%" y2="100%">
      <stop offset="0%" style="stop-color:#6366f1"/>
      <stop offset="100%" style="stop-color:#a78bfa"/>
    </linearGradient>
  </defs>
  <!-- Brain outline -->
  <circle cx="24" cy="24" r="20" fill="url(#grad)" opacity="0.15"/>
  <circle cx="24" cy="24" r="20" fill="none" stroke="url(#grad)" stroke-width="2"/>
  <!-- Circuit lines -->
  <path d="M16 18 L24 18 L24 12" fill="none" stroke="#6366f1" stroke-width="1.5" stroke-linecap="round"/>
  <path d="M32 18 L28 18 L28 24 L34 24" fill="none" stroke="#818cf8" stroke-width="1.5" stroke-linecap="round"/>
  <path d="M16 28 L20 28 L20 32 L24 32" fill="none" stroke="#a78bfa" stroke-width="1.5" stroke-linecap="round"/>
  <path d="M28 28 L32 28" fill="none" stroke="#6366f1" stroke-width="1.5" stroke-linecap="round"/>
  <path d="M24 22 L24 30" fill="none" stroke="#818cf8" stroke-width="1.5" stroke-linecap="round"/>
  <!-- Nodes -->
  <circle cx="16" cy="18" r="2.5" fill="#6366f1"/>
  <circle cx="32" cy="18" r="2.5" fill="#818cf8"/>
  <circle cx="24" cy="12" r="2.5" fill="#6366f1"/>
  <circle cx="34" cy="24" r="2.5" fill="#a78bfa"/>
  <circle cx="16" cy="28" r="2.5" fill="#a78bfa"/>
  <circle cx="24" cy="32" r="2.5" fill="#818cf8"/>
  <circle cx="32" cy="28" r="2.5" fill="#6366f1"/>
  <circle cx="24" cy="24" r="3" fill="#6366f1"/>
</svg>
